<svg viewBox="0 0 800 500" xmlns="http://www.w3.org/2000/svg">
  <!-- Background -->
  <rect width="800" height="500" fill="#f8fafc" rx="10" ry="10" />
  
  <!-- Title -->
  <text x="400" y="50" font-family="Arial" font-size="24" text-anchor="middle" font-weight="bold" fill="#334155">Bond Simple Interest</text>
  
  <!-- Timeline Bar -->
  <line x1="100" y1="200" x2="700" y2="200" stroke="#64748b" stroke-width="3" />
  
  <!-- Initial Investment -->
  <line x1="150" y1="190" x2="150" y2="210" stroke="#64748b" stroke-width="2" />
  <text x="150" y="230" font-family="Arial" font-size="14" text-anchor="middle" fill="#334155">Year 0</text>
  <rect x="120" y="240" width="60" height="40" fill="#bfdbfe" rx="5" ry="5" stroke="#3b82f6" stroke-width="1" />
  <text x="150" y="265" font-family="Arial" font-size="14" text-anchor="middle" fill="#1e40af">$1,000</text>
  <text x="150" y="290" font-family="Arial" font-size="12" text-anchor="middle" fill="#334155">Initial Investment</text>
  
  <!-- Year 1 Payment -->
  <line x1="250" y1="190" x2="250" y2="210" stroke="#64748b" stroke-width="2" />
  <text x="250" y="230" font-family="Arial" font-size="14" text-anchor="middle" fill="#334155">Year 1</text>
  <rect x="220" y="140" width="60" height="40" fill="#bbf7d0" rx="5" ry="5" stroke="#22c55e" stroke-width="1" />
  <text x="250" y="165" font-family="Arial" font-size="14" text-anchor="middle" fill="#166534">$50</text>
  <text x="250" y="115" font-family="Arial" font-size="12" text-anchor="middle" fill="#334155">Coupon Payment</text>
  
  <!-- Year 2 Payment -->
  <line x1="350" y1="190" x2="350" y2="210" stroke="#64748b" stroke-width="2" />
  <text x="350" y="230" font-family="Arial" font-size="14" text-anchor="middle" fill="#334155">Year 2</text>
  <rect x="320" y="140" width="60" height="40" fill="#bbf7d0" rx="5" ry="5" stroke="#22c55e" stroke-width="1" />
  <text x="350" y="165" font-family="Arial" font-size="14" text-anchor="middle" fill="#166534">$50</text>
  <text x="350" y="115" font-family="Arial" font-size="12" text-anchor="middle" fill="#334155">Coupon Payment</text>
  
  <!-- Year 3 Payment -->
  <line x1="450" y1="190" x2="450" y2="210" stroke="#64748b" stroke-width="2" />
  <text x="450" y="230" font-family="Arial" font-size="14" text-anchor="middle" fill="#334155">Year 3</text>
  <rect x="420" y="140" width="60" height="40" fill="#bbf7d0" rx="5" ry="5" stroke="#22c55e" stroke-width="1" />
  <text x="450" y="165" font-family="Arial" font-size="14" text-anchor="middle" fill="#166534">$50</text>
  <text x="450" y="115" font-family="Arial" font-size="12" text-anchor="middle" fill="#334155">Coupon Payment</text>
  
  <!-- Year 4 Payment -->
  <line x1="550" y1="190" x2="550" y2="210" stroke="#64748b" stroke-width="2" />
  <text x="550" y="230" font-family="Arial" font-size="14" text-anchor="middle" fill="#334155">Year 4</text>
  <rect x="520" y="140" width="60" height="40" fill="#bbf7d0" rx="5" ry="5" stroke="#22c55e" stroke-width="1" />
  <text x="550" y="165" font-family="Arial" font-size="14" text-anchor="middle" fill="#166534">$50</text>
  <text x="550" y="115" font-family="Arial" font-size="12" text-anchor="middle" fill="#334155">Coupon Payment</text>
  
  <!-- Year 5 Maturity -->
  <line x1="650" y1="190" x2="650" y2="210" stroke="#64748b" stroke-width="2" />
  <text x="650" y="230" font-family="Arial" font-size="14" text-anchor="middle" fill="#334155">Year 5</text>
  <rect x="620" y="140" width="60" height="40" fill="#bbf7d0" rx="5" ry="5" stroke="#22c55e" stroke-width="1" />
  <text x="650" y="165" font-family="Arial" font-size="14" text-anchor="middle" fill="#166534">$50</text>
  <rect x="620" y="240" width="60" height="40" fill="#bfdbfe" rx="5" ry="5" stroke="#3b82f6" stroke-width="1" />
  <text x="650" y="265" font-family="Arial" font-size="14" text-anchor="middle" fill="#1e40af">$1,000</text>
  <text x="650" y="300" font-family="Arial" font-size="12" text-anchor="middle" fill="#334155">Principal Returned</text>
  <text x="650" y="115" font-family="Arial" font-size="12" text-anchor="middle" fill="#334155">Final Coupon</text>
  
  <!-- Calculation Box -->
  <rect x="100" y="350" width="600" height="120" rx="8" ry="8" fill="#f1f5f9" stroke="#cbd5e1" stroke-width="1" />
  <text x="400" y="380" font-family="Arial" font-size="18" text-anchor="middle" font-weight="bold" fill="#334155">Simple Interest Calculation</text>
  
  <text x="150" y="410" font-family="Arial" font-size="14" fill="#334155">• $1,000 bond with 5% coupon rate for 5 years</text>
  <text x="150" y="435" font-family="Arial" font-size="14" fill="#334155">• Annual Interest = $1,000 × 5% = $50 per year</text>
  <text x="150" y="460" font-family="Arial" font-size="14" fill="#334155">• Total Interest = $50 × 5 years = $250</text>
  
  <text x="530" y="435" font-family="Arial" font-size="14" text-anchor="end" fill="#334155">Total Return:</text>
  <text x="550" y="435" font-family="Arial" font-size="16" font-weight="bold" fill="#166534">$1,250</text>
  <text x="550" y="455" font-family="Arial" font-size="12" fill="#334155">($1,000 principal + $250 interest)</text>
  
  <!-- Key Point -->
  <text x="400" y="490" font-family="Arial" font-size="14" text-anchor="middle" font-style="italic" fill="#334155">Simple interest assumes coupon payments are NOT reinvested</text>
</svg>